<svg id="svg" xmlns="http://www.w3.org/2000/svg" xmlns:xlink="http://www.w3.org/1999/xlink" width="400" height="430.7692307692308" viewBox="0, 0, 400,430.7692307692308"><g id="svgg"><path id="path0" d="M196.679 36.137 C 196.122 36.696,194.738 37.326,193.603 37.536 C 192.467 37.746,188.858 39.078,185.581 40.497 C 182.305 41.916,179.007 43.077,178.253 43.077 C 177.498 43.077,175.679 43.736,174.210 44.541 C 172.741 45.346,169.115 46.994,166.154 48.202 C 163.192 49.411,156.770 52.214,151.881 54.431 C 146.993 56.648,142.340 58.462,141.542 58.462 C 140.744 58.462,136.090 60.244,131.199 62.423 C 126.309 64.601,119.885 67.391,116.923 68.623 C 96.824 76.982,98.261 80.403,126.154 90.593 C 137.173 94.619,136.923 94.167,136.923 110.091 C 136.923 118.079,136.632 124.615,136.276 124.615 C 135.920 124.615,129.883 122.192,122.861 119.231 C 115.839 116.269,110.002 113.846,109.890 113.846 C 104.657 113.846,97.695 145.521,100.507 156.538 C 101.741 161.373,101.626 161.538,97.045 161.538 C 93.449 161.538,92.308 162.229,92.308 164.406 C 92.308 167.826,99.466 175.385,102.706 175.385 C 108.718 175.385,91.693 187.323,77.392 193.135 L 68.728 196.657 73.225 201.154 C 75.698 203.627,78.754 206.017,80.015 206.463 C 81.992 207.164,81.931 207.887,79.572 211.715 C 70.957 225.693,58.940 253.299,60.702 255.061 C 61.155 255.514,63.349 255.054,65.577 254.038 C 71.203 251.475,71.363 252.181,67.655 263.186 C 62.975 277.081,62.038 291.507,65.315 299.231 L 67.926 305.385 71.069 299.231 C 77.657 286.334,78.474 286.306,83.308 298.819 C 85.684 304.968,89.786 312.616,92.424 315.814 L 97.221 321.628 103.134 316.285 C 112.077 308.206,120.000 304.404,120.000 308.193 C 120.000 310.261,126.240 316.923,128.176 316.923 C 128.756 316.923,129.231 315.946,129.231 314.752 C 129.231 311.398,137.552 305.177,146.532 301.817 C 160.294 296.668,161.731 296.835,165.738 304.057 C 168.948 309.843,170.681 310.992,184.763 316.685 L 200.255 322.947 215.515 316.644 C 229.256 310.969,231.124 309.712,234.284 304.017 C 238.267 296.840,239.720 296.673,253.468 301.817 C 262.448 305.177,270.769 311.398,270.769 314.752 C 270.769 315.946,271.341 316.923,272.040 316.923 C 273.920 316.923,280.000 310.090,280.000 307.978 C 280.000 304.534,292.054 310.872,298.447 317.677 L 302.091 321.556 305.813 318.086 C 310.149 314.044,315.745 303.548,318.528 294.242 C 320.844 286.498,322.768 287.296,328.455 298.360 L 332.066 305.385 334.681 299.231 C 337.901 291.652,337.049 277.746,332.470 263.143 C 328.893 251.736,328.907 251.676,334.615 253.846 C 336.965 254.740,339.166 255.193,339.505 254.854 C 340.673 253.685,332.145 233.044,325.129 220.061 C 319.941 210.460,318.644 206.862,320.187 206.348 C 321.337 205.965,324.302 203.627,326.775 201.154 L 331.272 196.657 322.262 192.995 C 313.208 189.315,296.923 179.032,296.923 176.996 C 296.923 176.396,298.713 174.947,300.900 173.776 C 304.278 171.969,309.231 165.195,309.231 162.384 C 309.231 161.919,306.727 161.538,303.667 161.538 C 298.629 161.538,298.196 161.211,299.091 158.077 C 301.583 149.344,301.679 140.491,299.351 134.037 C 298.016 130.335,296.923 124.094,296.923 120.168 C 296.923 115.971,295.656 110.667,293.846 107.290 C 289.332 98.868,289.545 85.368,294.231 82.901 C 301.978 78.821,300.462 73.920,290.479 70.769 C 286.831 69.618,283.154 68.172,282.308 67.556 C 281.462 66.940,275.923 64.567,270.000 62.284 C 264.077 60.001,255.577 56.477,251.112 54.451 C 246.646 52.426,242.310 50.769,241.476 50.769 C 240.641 50.769,238.756 50.110,237.287 49.305 C 235.818 48.500,231.846 46.707,228.462 45.321 C 225.077 43.935,220.404 41.786,218.077 40.544 C 215.750 39.303,213.846 38.758,213.846 39.332 C 213.846 39.907,212.946 39.630,211.847 38.717 C 209.380 36.670,198.065 34.745,196.679 36.137 M227.024 51.632 C 296.771 80.348,292.060 77.012,273.462 84.514 C 266.481 87.330,250.385 93.946,237.692 99.217 C 225.000 104.487,211.404 110.000,207.479 111.466 L 200.343 114.133 169.787 101.624 C 118.207 80.509,115.425 79.281,115.405 77.626 C 115.394 76.743,125.250 71.975,137.308 67.031 C 149.365 62.086,168.231 54.342,179.231 49.823 C 203.548 39.832,197.841 39.616,227.024 51.632 M283.638 94.808 C 283.523 99.578,282.486 104.586,281.330 105.963 C 280.175 107.337,278.998 110.538,278.714 113.077 C 278.082 118.720,277.622 119.227,270.385 122.248 L 264.615 124.657 264.615 110.111 C 264.615 95.975,265.348 93.640,270.002 92.928 C 271.355 92.721,283.846 86.759,283.846 86.320 C 283.846 86.228,283.752 90.047,283.638 94.808 M161.162 103.172 C 183.829 112.621,194.196 116.644,198.649 117.721 C 201.627 118.441,209.644 115.846,229.268 107.810 C 243.890 101.822,256.460 96.923,257.200 96.923 C 257.940 96.923,258.354 106.788,258.119 118.846 L 257.692 140.769 250.769 144.177 C 223.237 157.731,160.658 156.043,145.966 141.350 C 142.691 138.075,141.447 96.923,144.623 96.923 C 145.474 96.923,152.916 99.735,161.162 103.172 M289.835 111.664 C 292.601 118.872,289.450 132.678,286.177 127.692 C 283.408 123.473,284.576 109.231,287.692 109.231 C 288.357 109.231,289.322 110.326,289.835 111.664 M126.635 127.896 C 140.794 133.592,140.403 135.436,124.799 136.553 L 113.994 137.326 111.230 148.054 L 108.467 158.782 106.515 152.083 C 104.360 144.686,104.987 139.953,109.460 129.840 C 113.029 121.772,111.768 121.915,126.635 127.896 M280.770 129.232 C 281.970 133.013,286.638 135.693,289.867 134.453 C 293.294 133.139,295.837 140.789,294.639 148.810 C 293.219 158.324,291.775 157.882,288.652 146.979 L 285.870 137.263 276.016 136.636 C 262.828 135.796,260.715 133.501,269.442 129.494 C 278.081 125.528,279.583 125.494,280.770 129.232 M142.168 145.385 C 144.283 147.500,147.084 149.231,148.392 149.231 C 152.225 149.231,151.225 151.086,143.094 159.066 C 123.609 178.188,114.705 207.351,117.687 242.280 C 118.922 256.750,119.678 258.480,128.966 268.077 C 132.856 272.096,135.517 275.385,134.881 275.385 C 132.288 275.385,120.344 268.515,114.025 263.389 L 107.281 257.919 108.175 237.036 C 108.712 224.498,110.309 210.929,112.172 203.077 C 113.879 195.885,115.651 188.269,116.110 186.154 C 117.596 179.313,107.628 201.553,103.087 215.210 C 91.776 249.230,90.983 265.842,100.385 271.791 C 110.777 278.367,131.182 287.487,140.115 289.549 L 148.316 291.442 139.424 293.223 C 126.815 295.749,111.326 291.946,100.385 283.639 C 97.635 281.552,95.385 280.467,95.385 281.229 C 95.385 283.705,104.448 295.204,108.482 297.847 L 112.410 300.421 104.538 305.723 C 100.208 308.639,96.418 310.777,96.115 310.473 C 93.947 308.306,87.370 291.490,85.851 284.231 C 83.641 273.672,83.829 273.718,75.688 281.778 C 71.780 285.648,69.231 287.263,69.231 285.870 C 69.231 280.250,75.601 259.484,79.996 250.777 C 85.595 239.686,85.400 238.988,77.622 242.238 C 74.439 243.568,71.551 244.371,71.204 244.024 C 70.276 243.097,81.068 222.113,87.514 212.308 C 90.574 207.654,93.664 202.922,94.381 201.791 C 95.369 200.235,94.623 199.808,91.304 200.031 C 81.046 200.721,80.830 199.886,89.991 194.959 C 95.064 192.232,104.064 185.349,109.991 179.664 L 120.769 169.329 111.538 169.167 L 102.308 169.006 110.328 166.154 C 124.050 161.276,140.156 148.652,134.825 146.955 C 126.994 144.462,126.765 144.240,130.769 143.019 C 137.012 141.114,138.129 141.346,142.168 145.385 M270.000 143.043 C 272.778 144.207,272.583 144.513,267.999 146.190 C 260.441 148.955,269.848 157.709,288.715 165.467 L 297.692 169.158 288.462 169.259 L 279.231 169.360 290.160 179.719 C 296.171 185.416,305.171 192.292,310.160 194.998 C 319.198 199.900,318.955 200.723,308.672 200.029 C 303.744 199.696,303.708 199.571,311.806 210.901 C 317.486 218.849,329.893 242.927,328.847 243.974 C 328.472 244.349,325.561 243.568,322.378 242.238 C 315.105 239.199,314.235 240.061,318.120 246.458 C 322.337 253.400,328.716 271.672,330.066 280.675 L 331.177 288.085 324.572 281.675 C 317.072 274.397,316.698 274.554,313.919 286.154 C 312.298 292.919,306.031 307.992,303.790 310.512 C 303.539 310.794,299.792 308.639,295.462 305.723 L 287.590 300.421 291.518 297.847 C 295.552 295.204,304.615 283.705,304.615 281.229 C 304.615 280.467,302.365 281.552,299.615 283.639 C 288.799 291.851,272.825 295.852,261.179 293.266 L 253.119 291.476 262.818 288.779 C 272.611 286.057,294.120 275.988,301.923 270.473 C 310.604 264.338,303.127 223.419,287.079 189.231 C 282.190 178.816,282.184 179.073,286.854 198.723 C 297.940 245.367,295.867 259.014,276.006 270.134 C 263.795 276.970,262.957 276.759,270.373 268.713 C 280.954 257.234,281.755 255.282,282.597 238.899 C 284.457 202.738,271.853 167.059,252.812 154.583 L 248.690 151.883 254.423 148.942 C 257.576 147.324,260.541 144.997,261.012 143.770 C 261.952 141.320,265.248 141.053,270.000 143.043 M163.385 154.535 C 183.856 160.748,216.361 160.739,238.128 154.516 L 246.255 152.192 250.435 157.039 C 256.035 163.533,263.049 175.551,263.064 178.679 C 263.089 183.617,255.117 183.820,251.600 178.971 C 241.599 165.185,236.820 161.849,240.835 171.458 C 244.918 181.232,243.438 186.381,235.441 190.217 C 229.516 193.060,217.991 215.385,222.449 215.385 C 222.753 215.385,225.269 214.003,228.040 212.313 C 230.810 210.624,234.808 209.224,236.923 209.203 C 242.540 209.145,253.050 203.964,255.950 199.824 C 258.447 196.259,258.477 196.256,261.414 199.273 C 265.543 203.518,260.586 217.436,253.560 221.323 C 243.651 226.806,244.378 227.442,256.154 223.594 C 271.005 218.742,271.720 218.229,272.976 211.538 C 275.060 200.428,277.451 203.681,276.474 216.295 C 275.198 232.756,262.688 261.538,256.809 261.538 C 251.858 261.538,252.718 249.542,258.241 241.559 C 266.727 229.294,267.246 227.899,261.385 233.125 C 258.508 235.689,254.571 239.107,252.637 240.721 L 249.120 243.654 238.406 233.022 C 225.302 220.018,225.169 220.586,237.099 238.603 C 244.328 249.520,247.132 255.438,249.213 264.170 L 251.920 275.532 243.511 282.381 C 233.389 290.626,230.815 290.813,215.000 284.451 C 201.643 279.077,199.593 275.271,206.941 269.491 C 209.066 267.820,215.099 262.476,220.347 257.618 L 229.889 248.783 223.997 243.690 L 218.106 238.597 209.053 243.167 L 200.000 247.737 191.072 243.230 L 182.144 238.723 176.119 243.781 L 170.093 248.840 179.278 257.102 C 202.389 277.893,202.190 277.095,186.037 284.151 C 170.553 290.915,167.269 290.707,156.696 282.296 L 148.007 275.385 151.009 263.664 C 153.274 254.824,156.260 248.599,163.160 238.338 C 174.916 220.855,174.676 220.040,161.594 233.022 L 150.880 243.654 147.363 240.721 C 145.429 239.107,141.501 235.689,138.635 233.125 C 132.956 228.044,133.291 228.911,141.893 241.575 C 147.296 249.528,148.077 261.538,143.191 261.538 C 137.372 261.538,125.024 233.269,123.651 216.803 C 122.569 203.835,124.985 199.295,126.908 210.681 C 128.177 218.192,128.774 218.656,143.462 223.527 C 157.225 228.091,157.936 227.942,148.568 222.452 C 139.272 217.004,133.785 204.208,138.616 199.243 C 141.591 196.187,141.608 196.190,145.030 200.367 C 148.645 204.779,157.714 209.231,163.089 209.231 C 164.842 209.231,168.929 210.584,172.172 212.238 L 178.067 215.246 174.893 204.365 C 171.871 194.006,171.400 193.348,165.058 190.629 C 155.745 186.637,155.237 183.808,160.806 166.923 C 161.944 163.475,156.094 169.203,149.231 178.257 C 144.994 183.846,136.923 184.068,136.923 178.596 C 136.923 173.958,152.089 152.263,155.288 152.324 C 155.764 152.334,159.408 153.328,163.385 154.535 M161.100 196.305 C 167.742 200.509,168.870 205.236,162.949 204.051 C 156.618 202.785,151.410 199.457,149.149 195.233 C 147.137 191.473,154.510 192.134,161.100 196.305 M250.769 195.385 C 248.758 199.143,243.732 202.518,238.077 203.909 C 230.239 205.836,235.470 196.342,243.530 194.011 C 251.587 191.682,252.644 191.882,250.769 195.385 M192.103 247.897 L 200.000 251.179 207.897 247.897 C 217.176 244.041,219.018 243.886,221.399 246.755 C 222.825 248.473,222.269 249.212,218.583 250.496 C 215.702 251.501,211.527 255.561,207.380 261.392 C 199.371 272.653,200.683 272.703,192.328 260.823 C 187.292 253.662,184.225 250.768,180.985 250.120 C 177.245 249.372,176.847 248.868,178.461 246.924 C 180.990 243.876,182.725 244.000,192.103 247.897 M215.712 290.926 C 220.186 292.705,225.385 294.757,227.267 295.488 C 233.702 297.986,227.655 304.541,212.786 311.183 L 199.807 316.981 186.842 310.905 C 175.274 305.484,167.988 298.841,170.904 296.373 C 179.609 289.005,203.557 286.093,215.712 290.926 " stroke="none" fill="#000000" fill-rule="evenodd"></path></g></svg>